# QuadMeshTesser OBJ export
v 0.111722 -3.317714 -1.973191
v 3.859572 0.129969 -0.000000
v -0.111722 3.317714 1.973191
v -3.859572 -0.129969 0.000000
v -0.494520 -5.526670 -0.450025
v 0.360251 -4.740358 -0.000000
v -0.545480 -4.013330 0.450025
v -1.400251 -4.799642 0.000000
v -0.570510 -6.748631 -0.285468
v -0.053198 -6.224061 -0.000000
v -0.649490 -5.791369 0.285468
v -1.166802 -6.315939 0.000000
v -1.444672 -9.154331 -1.315208
v -1.007928 -8.959707 -0.996051
v -1.375328 -8.645669 -0.684792
v -1.812072 -8.840293 -1.003949
v -0.207807 -11.394417 -2.741063
v 0.230482 -10.591969 -1.759592
v -1.012193 -10.525583 -1.258937
v -1.450482 -11.328031 -2.240408
v -0.788527 -14.496344 -3.481430
v -0.138609 -14.428446 -2.979099
v -0.551473 -13.883656 -2.518570
v -1.201391 -13.951554 -3.020901
v -1.660508 -16.042556 -3.299029
v -0.928843 -15.796125 -3.010449
v -1.279492 -15.117444 -2.700971
v -2.011157 -15.363875 -2.989551
v -2.713917 -16.717920 -3.296999
v -1.947284 -16.734348 -3.010378
v -2.046083 -15.982080 -2.703001
v -2.812716 -15.965652 -2.989622
v 0.884265 -15.692955 -3.661823
v 1.522143 -15.013583 -2.813476
v 0.435735 -14.587045 -2.338177
v -0.202143 -15.266417 -3.186524
v 1.539137 -18.187710 -3.347385
v 1.905456 -17.358130 -2.854926
v 0.940863 -17.052290 -2.652615
v 0.574544 -17.881870 -3.145074
v 3.629032 -17.492681 -6.186542
v 3.790878 -17.108515 -4.199561
v 2.370968 -18.507319 -3.813458
v 2.209122 -18.891485 -5.800439
v -1.576480 2.001536 -1.415408
v -0.787461 2.727362 -1.000000
v -1.623520 3.398464 -0.584592
v -2.412539 2.672638 -1.000000
v -2.334819 2.079256 -1.345761
v -2.665429 2.829176 -1.212340
v -3.185181 2.500744 -0.654239
v -2.854571 1.750824 -0.787660
v -3.131048 1.472143 -1.356837
v -3.748587 2.050114 -1.219141
v -4.108952 1.527857 -0.643163
v -3.491413 0.949886 -0.780859
v -3.879744 0.450345 -1.329005
v -4.574569 0.804434 -1.202049
v -4.760256 0.249655 -0.670995
v -4.065431 -0.104434 -0.797951
v -3.669087 -0.191965 -1.319174
v -4.305242 -0.601434 -1.196012
v -3.930913 -1.028035 -0.680826
v -3.294758 -0.618566 -0.803988
v -4.066424 -1.715795 -2.174863
v -4.799036 -1.632409 -1.921409
v -4.853576 -2.404205 -1.825137
v -4.120964 -2.487591 -2.078591
v -5.231695 -2.631812 -2.357484
v -5.529497 -2.206964 -1.979456
v -5.788305 -2.688188 -1.642516
v -5.490503 -3.113036 -2.020544
v -5.984037 -3.609377 -3.183453
v -6.697641 -3.398555 -2.888604
v -6.895963 -4.170623 -2.816547
v -6.182359 -4.381445 -3.111396
v -6.720995 -5.247648 -2.403562
v -7.178160 -4.955821 -2.133301
v -6.999005 -5.172352 -1.596438
v -6.541840 -5.464179 -1.866699
v -6.973438 -6.242697 -2.490735
v -7.752862 -6.053242 -2.037605
v -7.626562 -6.797303 -1.509265
v -6.847138 -6.986758 -1.962395
v -7.909473 -6.977397 -2.453948
v -8.237181 -6.311698 -2.034786
v -8.690527 -6.842603 -1.546052
v -8.362819 -7.508302 -1.965214
v -8.983573 -6.699905 -2.306225
v -8.785483 -6.240239 -2.023466
v -9.256427 -6.240095 -1.693775
v -9.454517 -6.699761 -1.976534
v 0.980976 2.330122 -2.547092
v 2.020115 3.286036 -2.000000
v 0.919024 4.169878 -1.452908
v -0.120115 3.213964 -2.000000
v 1.486197 3.801696 -3.092843
v 1.869777 4.079545 -2.981889
v 1.573803 4.458304 -2.907157
v 1.190223 4.180455 -3.018111
v 1.534746 4.540517 -3.406559
v 1.846879 4.925211 -2.983576
v 1.325254 4.919483 -2.593441
v 1.013121 4.534789 -3.016424
v 2.166507 5.596306 -3.400650
v 2.653062 5.636293 -2.983815
v 2.293493 6.003694 -2.599350
v 1.806938 5.963707 -3.016185
v 2.239734 6.400822 -3.242498
v 2.449902 6.608527 -2.990204
v 2.140266 6.639178 -2.757502
v 1.930098 6.431473 -3.009796
v 0.033556 2.700465 -2.416044
v 0.823785 3.427404 -2.000000
v -0.013556 4.099535 -1.583956
v -0.803785 3.372596 -2.000000
v -0.272273 4.259921 -2.593269
v 0.301912 4.792688 -2.041469
v -0.407727 4.900079 -1.406731
v -0.981912 4.367312 -1.958531
v -0.543688 4.650656 -3.147217
v -0.216835 5.620637 -3.118497
v -1.156312 5.929344 -2.852783
v -1.483165 4.959363 -2.881503
v -2.107307 5.316770 -4.260483
v -2.168177 6.282093 -4.365478
v -2.912693 6.303230 -3.739517
v -2.851823 5.337907 -3.634522
v -4.120207 6.048410 -6.002045
v -4.280839 6.586167 -6.286271
v -4.839793 6.571590 -5.997955
v -4.679161 6.033833 -5.713729
v -4.984213 5.414414 -6.167204
v -5.552119 5.736474 -6.477061
v -5.875787 5.785586 -5.832796
v -5.307881 5.463526 -5.522939
v -5.623698 4.406842 -6.251672
v -6.564882 4.689407 -6.718061
v -7.056302 4.653158 -5.748328
v -6.115118 4.370593 -5.281939
v -6.481061 3.241726 -6.186940
v -7.209565 3.287383 -6.533372
v -7.558939 3.178274 -5.813060
v -6.830435 3.132617 -5.466628
v -3.299032 7.455721 -8.900356
v -2.883711 8.320424 -8.944262
v -3.740968 8.724279 -9.099644
v -4.156289 7.859576 -9.055738
v -4.725280 9.232976 -9.725654
v -4.051301 9.806714 -9.074316
v -4.194720 9.067024 -8.274346
v -4.868699 8.493286 -8.925684
v -4.731419 8.985637 -10.065136
v -3.810716 10.364622 -9.382606
v -4.868581 10.354363 -7.934864
v -5.789284 8.975378 -8.617394
v -4.816608 10.394936 -9.455323
v -4.127766 10.561959 -9.163556
v -4.463392 10.865064 -8.544677
v -5.152234 10.698041 -8.836444
v -4.757395 10.649008 -10.048727
v -3.820236 10.921237 -10.097972
v -4.082605 11.850992 -9.951273
v -5.019764 11.578763 -9.902028
v -4.478429 11.621893 -11.075224
v -3.830475 11.850321 -11.110822
v -4.041571 12.478107 -10.924776
v -4.689525 12.249679 -10.889178
v -4.608207 13.063575 -11.424225
v -3.956816 13.429119 -11.252192
v -4.251793 13.636425 -10.575775
v -4.903184 13.270881 -10.747808
v -4.939411 13.953520 -11.605114
v -4.114890 14.628310 -11.359727
v -4.580589 14.846480 -10.394886
v -5.405110 14.171690 -10.640273
v -5.646931 14.176111 -11.531470
v -5.951396 15.060974 -11.315947
v -6.273069 14.743889 -10.468530
v -5.968604 13.859026 -10.684053
v -6.831116 14.809247 -11.540803
v -6.554581 15.720419 -11.321495
v -7.008884 15.650753 -10.459197
v -7.285419 14.739581 -10.678505
v -7.274114 16.084193 -11.318169
v -6.811758 16.400522 -11.189144
v -7.045886 16.535807 -10.681831
v -7.508242 16.219478 -10.810856
v -7.529397 16.995646 -11.320129
v -7.086473 17.344263 -11.190309
v -7.330603 17.464354 -10.679871
v -7.773527 17.115737 -10.809691
v -9.017012 17.974438 -10.844942
v -8.595264 18.924996 -10.193677
v -8.802988 18.305562 -9.155058
v -9.224736 17.355004 -9.806323
v -9.444880 18.319492 -10.489329
v -9.329943 19.059829 -10.160947
v -9.775120 18.840508 -9.510671
v -9.890057 18.100171 -9.839053
v -3.386609 8.414227 -11.001956
v -2.792637 9.384514 -10.748151
v -3.733391 10.025773 -10.998044
v -4.327363 9.055486 -11.251849
v -2.584758 9.367229 -11.995969
v -2.146737 9.886881 -11.635762
v -2.515242 10.452771 -12.004031
v -2.953263 9.933119 -12.364238
v -1.910196 10.106731 -12.978026
v -1.576385 10.529879 -12.788485
v -1.929804 10.913269 -13.021974
v -2.263615 10.490121 -13.211515
v -1.566866 11.075966 -13.338639
v -1.419710 11.314761 -12.691266
v -2.053134 11.624034 -12.661361
v -2.200290 11.385239 -13.308734
v -1.441583 12.365651 -12.368714
v -1.371165 12.100936 -11.791680
v -1.958417 12.294349 -11.631286
v -2.028835 12.559064 -12.208320
v -1.276338 13.126801 -12.370796
v -1.103791 13.381430 -11.668714
v -1.783662 13.733199 -11.629204
v -1.956209 13.478570 -12.331286
v -1.750476 14.601847 -12.334232
v -1.742209 14.878979 -11.701382
v -2.429524 14.818153 -11.665768
v -2.437791 14.541021 -12.298618
v -2.018940 15.834080 -12.414550
v -1.948562 16.170681 -11.629622
v -2.801060 16.245920 -11.585450
v -2.871438 15.909319 -12.370378
v -1.996744 16.458754 -12.361671
v -1.802051 16.687017 -11.676866
v -2.423256 17.101246 -11.638329
v -2.617949 16.872983 -12.323134
v -1.810317 17.211122 -13.082609
v -1.507613 17.894727 -12.776224
v -2.209683 18.268878 -12.917391
v -2.512387 17.585273 -13.223776
v -1.205241 18.320024 -13.523384
v -0.919368 18.647678 -12.457124
v -1.754759 19.439976 -12.476616
v -2.040632 19.112322 -13.542876
v -1.131696 19.813222 -14.199371
v -0.911819 20.535557 -13.716044
v -1.748304 20.846778 -13.800629
v -1.968181 20.124443 -14.283956
v -1.117460 21.522173 -14.325699
v -0.963847 21.748260 -13.734413
v -1.562540 21.997827 -13.674301
v -1.716153 21.771740 -14.265587
v -1.688267 22.973994 -13.418546
v -1.558799 22.758994 -12.658529
v -2.331733 22.566006 -12.581454
v -2.461201 22.781006 -13.341471
v 2.556134 0.493913 -2.461574
v 3.432840 1.300403 -2.000000
v 2.503866 2.046087 -1.538426
v 1.627160 1.239597 -2.000000
v 4.167578 1.043111 -2.297681
v 4.532201 1.361972 -1.690035
v 4.032422 1.956889 -1.702319
v 3.667799 1.638028 -2.309965
v 5.861680 1.881436 -3.264399
v 6.312626 2.308687 -2.936094
v 5.778320 2.718564 -2.735601
v 5.327374 2.291313 -3.063906
v 7.853508 3.464936 -4.217272
v 8.112487 3.786066 -3.936764
v 7.686492 3.995064 -3.782728
v 7.427513 3.673934 -4.063236
v 9.289619 4.697429 -4.388731
v 9.688164 4.824299 -3.746396
v 9.270381 5.452571 -3.611269
v 8.871836 5.325701 -4.253604
v 11.593882 3.799382 -4.487002
v 12.112395 3.723854 -3.682284
v 11.986118 4.660618 -3.512998
v 11.467605 4.736146 -4.317716
v 9.746237 3.504338 -5.111281
v 10.138144 3.077000 -4.935227
v 10.573763 3.495662 -4.888719
v 10.181856 3.923000 -5.064773
v 9.943397 1.910756 -5.171257
v 10.414797 1.592088 -4.653683
v 10.956603 2.109244 -4.828743
v 10.485203 2.427912 -5.346317
v 9.754288 0.871371 -6.127968
v 10.280269 0.084327 -5.966610
v 11.065712 0.628629 -5.872032
v 10.539731 1.415673 -6.033390
v 10.539946 0.087573 -7.332316
v 11.271315 -0.437049 -7.169991
v 11.640054 0.232427 -6.667684
v 10.908685 0.757049 -6.830009
v 9.295207 6.308280 -3.251461
v 9.030426 6.213867 -2.467531
v 8.284793 5.971720 -2.748539
v 8.549574 6.066133 -3.532469
v 9.482926 6.947899 -3.355712
v 9.405766 7.406805 -2.704510
v 8.637074 7.192101 -2.644288
v 8.714234 6.733195 -3.295490
v -1.857674 -4.999970 0.429063
v -0.773245 -4.002394 1.000000
v -1.922326 -3.080030 1.570937
v -3.006755 -4.077606 1.000000
v -3.018360 -5.941484 0.509810
v -2.234492 -5.535496 1.091734
v -2.901640 -4.818516 1.490190
v -3.685508 -5.224504 0.908266
v -3.056885 -7.360789 -0.494408
v -2.773895 -7.089869 0.248826
v -3.563115 -6.939211 0.494408
v -3.846105 -7.210131 -0.248826
v -3.793267 -9.358165 -0.374981
v -3.339642 -8.823584 0.121901
v -4.066733 -8.441835 0.374981
v -4.520358 -8.976416 -0.121901
v -5.542014 -10.680370 -0.512450
v -4.629760 -10.387422 0.166590
v -5.197986 -9.419630 0.512450
v -6.110240 -9.712578 -0.166590
v -5.572331 -12.105753 -1.464109
v -5.332124 -11.836943 -0.691913
v -6.127669 -11.574247 -0.535891
v -6.367876 -11.843057 -1.308087
v -4.719668 -13.133165 -2.408503
v -4.863776 -12.936997 -1.481808
v -5.800332 -13.106835 -1.591497
v -5.656224 -13.303003 -2.518192
v -4.341744 -14.557104 -2.168065
v -4.561240 -14.012521 -1.671174
v -5.298256 -14.162896 -1.831935
v -5.078760 -14.707479 -2.328826
v -5.190094 -16.294936 -0.920229
v -5.075690 -15.706560 -0.831183
v -5.609906 -15.565064 -1.079771
v -5.724310 -16.153440 -1.168817
v -4.875572 -18.295786 -1.143678
v -4.975120 -17.665966 -0.611792
v -5.764428 -17.584214 -0.856322
v -5.664880 -18.214034 -1.388208
v -4.671642 -20.230868 -1.111076
v -4.794902 -19.753574 -0.699879
v -5.408358 -19.749132 -0.888924
v -5.285098 -20.226426 -1.300121
v -3.693050 -20.382708 -1.123572
v -4.190752 -20.152397 -0.666118
v -4.626950 -20.677292 -0.876428
v -4.129248 -20.907603 -1.333882
v -3.818687 -22.265634 -2.469052
v -3.698401 -22.002890 -1.622745
v -4.581313 -21.894366 -1.530948
v -4.701599 -22.157110 -2.377255
v 0.111722 -3.317714 -1.973191
v 0.111722 -3.317714 -1.973191
v 0.111722 -3.317714 -1.973191
v 0.111722 -3.317714 -1.973191
v 0.111722 -3.317714 -1.973191
v 0.111722 -3.317714 -1.973191
v 0.111722 -3.317714 -1.973191
v 0.111722 -3.317714 -1.973191
v 0.111722 -3.317714 -1.973191
v 0.111722 -3.317714 -1.973191
v 0.111722 -3.317714 -1.973191
v 0.111722 -3.317714 -1.973191
v 0.063550 -1.887188 -3.368631
v 1.032892 -1.986799 -3.146260
v 1.751396 -2.323928 -2.538732
v 2.026540 -2.808240 -1.708834
v 1.784600 -3.309965 -0.878935
v 1.090403 -3.694665 -0.271407
v 0.129958 -3.859261 -0.049037
v -0.839383 -3.759649 -0.271407
v -1.557888 -3.422521 -0.878935
v -1.833032 -2.938209 -1.708834
v -1.591092 -2.436484 -2.538732
v -0.896895 -2.051784 -3.146260
v -0.001650 0.049009 -3.861449
v 1.677299 -0.123524 -3.476291
v 2.921785 -0.707447 -2.424022
v 3.398349 -1.546301 -0.986596
v 2.979296 -2.415313 0.450831
v 1.776911 -3.081634 1.503100
v 0.113372 -3.366723 1.888257
v -1.565577 -3.194190 1.503100
v -2.810063 -2.610266 0.450831
v -3.286627 -1.771413 -0.986596
v -2.867574 -0.902401 -2.424022
v -1.665189 -0.236080 -3.476291
v -0.066408 1.972074 -3.319594
v 1.872275 1.772850 -2.874853
v 3.309283 1.098593 -1.659797
v 3.859572 0.129969 -0.000000
v 3.375692 -0.873480 1.659797
v 1.987298 -1.642881 2.874853
v 0.066408 -1.972074 3.319594
v -1.872275 -1.772850 2.874853
v -3.309283 -1.098593 1.659797
v -3.859572 -0.129969 0.000000
v -3.375692 0.873480 -1.659797
v -1.987298 1.642881 -2.874853
v -0.113372 3.366723 -1.888257
v 1.565577 3.194190 -1.503100
v 2.810063 2.610266 -0.450831
v 3.286627 1.771413 0.986596
v 2.867574 0.902401 2.424022
v 1.665189 0.236080 3.476291
v 0.001650 -0.049009 3.861449
v -1.677299 0.123524 3.476291
v -2.921785 0.707447 2.424022
v -3.398349 1.546301 0.986596
v -2.979296 2.415313 -0.450831
v -1.776911 3.081634 -1.503100
v -0.129958 3.859261 0.049037
v 0.839383 3.759649 0.271407
v 1.557888 3.422521 0.878935
v 1.833032 2.938209 1.708834
v 1.591092 2.436484 2.538732
v 0.896895 2.051784 3.146260
v -0.063550 1.887188 3.368631
v -1.032892 1.986799 3.146260
v -1.751396 2.323928 2.538732
v -2.026540 2.808240 1.708834
v -1.784600 3.309965 0.878935
v -1.090403 3.694665 0.271407
v -0.111722 3.317714 1.973191
v -0.111722 3.317714 1.973191
v -0.111722 3.317714 1.973191
v -0.111722 3.317714 1.973191
v -0.111722 3.317714 1.973191
v -0.111722 3.317714 1.973191
v -0.111722 3.317714 1.973191
v -0.111722 3.317714 1.973191
v -0.111722 3.317714 1.973191
v -0.111722 3.317714 1.973191
v -0.111722 3.317714 1.973191
v -0.111722 3.317714 1.973191
v 0.281886 -11.924668 -2.223619
v 0.281886 -11.924668 -2.223619
v 0.281886 -11.924668 -2.223619
v 0.281886 -11.924668 -2.223619
v 0.281886 -11.924668 -2.223619
v 0.281886 -11.924668 -2.223619
v 0.281886 -11.924668 -2.223619
v 0.281886 -11.924668 -2.223619
v 0.281886 -11.924668 -2.223619
v 0.281886 -11.924668 -2.223619
v 0.281886 -11.924668 -2.223619
v 0.281886 -11.924668 -2.223619
v 0.192385 -11.767535 -2.400407
v 0.280098 -11.699866 -2.339447
v 0.355658 -11.683290 -2.239423
v 0.398819 -11.722249 -2.127137
v 0.398015 -11.806304 -2.032675
v 0.353463 -11.912933 -1.981349
v 0.277099 -12.013563 -1.986912
v 0.189386 -12.081232 -2.047872
v 0.113826 -12.097808 -2.147896
v 0.070665 -12.058849 -2.260182
v 0.071469 -11.974794 -2.354644
v 0.116021 -11.868166 -2.405970
v 0.032578 -11.584267 -2.469907
v 0.184502 -11.467061 -2.364321
v 0.315376 -11.438351 -2.191074
v 0.390132 -11.505830 -1.996589
v 0.388741 -11.651418 -1.832977
v 0.311573 -11.836104 -1.744077
v 0.179308 -12.010401 -1.753712
v 0.027384 -12.127607 -1.859298
v -0.103490 -12.156317 -2.032545
v -0.178246 -12.088838 -2.227030
v -0.176855 -11.943250 -2.390642
v -0.099687 -11.758565 -2.479541
v -0.154714 -11.423972 -2.413496
v 0.020712 -11.288634 -2.291575
v 0.171832 -11.255482 -2.091527
v 0.258154 -11.333401 -1.866955
v 0.256546 -11.501511 -1.678032
v 0.167442 -11.714767 -1.575380
v 0.014714 -11.916028 -1.586504
v -0.160712 -12.051366 -1.708425
v -0.311832 -12.084518 -1.908473
v -0.398154 -12.006599 -2.133045
v -0.396546 -11.838489 -2.321968
v -0.307442 -11.625233 -2.424620
v -0.319308 -11.329599 -2.246288
v -0.167384 -11.212393 -2.140702
v -0.036510 -11.183683 -1.967455
v 0.038246 -11.251162 -1.772970
v 0.036855 -11.396750 -1.609358
v -0.040313 -11.581435 -1.520459
v -0.172578 -11.755733 -1.530093
v -0.324502 -11.872939 -1.635679
v -0.455376 -11.901649 -1.808926
v -0.530132 -11.834170 -2.003411
v -0.528741 -11.688582 -2.167023
v -0.451573 -11.503896 -2.255923
v -0.417099 -11.326437 -2.013088
v -0.329386 -11.258768 -1.952128
v -0.253826 -11.242192 -1.852104
v -0.210665 -11.281151 -1.739818
v -0.211469 -11.365206 -1.645356
v -0.256021 -11.471834 -1.594030
v -0.332385 -11.572465 -1.599593
v -0.420098 -11.640134 -1.660553
v -0.495658 -11.656710 -1.760577
v -0.538819 -11.617751 -1.872863
v -0.538015 -11.533696 -1.967325
v -0.493463 -11.427067 -2.018651
v -0.421886 -11.415332 -1.776381
v -0.421886 -11.415332 -1.776381
v -0.421886 -11.415332 -1.776381
v -0.421886 -11.415332 -1.776381
v -0.421886 -11.415332 -1.776381
v -0.421886 -11.415332 -1.776381
v -0.421886 -11.415332 -1.776381
v -0.421886 -11.415332 -1.776381
v -0.421886 -11.415332 -1.776381
v -0.421886 -11.415332 -1.776381
v -0.421886 -11.415332 -1.776381
v -0.421886 -11.415332 -1.776381
v -2.662881 5.636003 -4.696579
v -2.662881 5.636003 -4.696579
v -2.662881 5.636003 -4.696579
v -2.662881 5.636003 -4.696579
v -2.662881 5.636003 -4.696579
v -2.662881 5.636003 -4.696579
v -2.662881 5.636003 -4.696579
v -2.662881 5.636003 -4.696579
v -2.662881 5.636003 -4.696579
v -2.662881 5.636003 -4.696579
v -2.662881 5.636003 -4.696579
v -2.662881 5.636003 -4.696579
v -2.852528 5.726883 -4.960173
v -2.711062 5.817066 -4.976939
v -2.568069 5.877903 -4.911526
v -2.461866 5.893093 -4.781461
v -2.420908 5.858565 -4.621595
v -2.456171 5.783572 -4.474765
v -2.558205 5.688207 -4.380312
v -2.699671 5.598024 -4.363546
v -2.842664 5.537187 -4.428959
v -2.948867 5.521997 -4.559024
v -2.989825 5.556525 -4.718890
v -2.954562 5.631518 -4.865720
v -3.076331 5.936496 -5.100464
v -2.831305 6.092698 -5.129504
v -2.583635 6.198071 -5.016205
v -2.399685 6.224380 -4.790926
v -2.328744 6.164576 -4.514030
v -2.389820 6.034683 -4.259712
v -2.566549 5.869507 -4.096115
v -2.811576 5.713305 -4.067075
v -3.059246 5.607932 -4.180374
v -3.243196 5.581623 -4.405653
v -3.314137 5.641427 -4.682549
v -3.253060 5.771320 -4.936867
v -3.274323 6.208677 -5.079861
v -2.991390 6.389043 -5.113393
v -2.705406 6.510717 -4.982567
v -2.492999 6.541096 -4.722438
v -2.411083 6.472040 -4.402706
v -2.481608 6.322053 -4.109044
v -2.685677 6.131323 -3.920139
v -2.968610 5.950957 -3.886607
v -3.254594 5.829283 -4.017433
v -3.467001 5.798904 -4.277562
v -3.548917 5.867960 -4.597294
v -3.478392 6.017947 -4.890956
v -3.393451 6.470493 -4.903885
v -3.148424 6.626695 -4.932925
v -2.900754 6.732068 -4.819626
v -2.716804 6.758377 -4.594347
v -2.645863 6.698573 -4.317451
v -2.706940 6.568680 -4.063133
v -2.883669 6.403504 -3.899536
v -3.128695 6.247302 -3.870496
v -3.376365 6.141929 -3.983795
v -3.560315 6.115620 -4.209074
v -3.631256 6.175424 -4.485970
v -3.570180 6.305317 -4.740288
v -3.401795 6.651793 -4.619688
v -3.260329 6.741976 -4.636454
v -3.117336 6.802813 -4.571041
v -3.011133 6.818003 -4.440976
v -2.970175 6.783475 -4.281110
v -3.005438 6.708482 -4.134280
v -3.107472 6.613117 -4.039827
v -3.248938 6.522934 -4.023061
v -3.391931 6.462097 -4.088474
v -3.498134 6.446907 -4.218539
v -3.539092 6.481435 -4.378405
v -3.503829 6.556428 -4.525235
v -3.297119 6.703997 -4.303421
v -3.297119 6.703997 -4.303421
v -3.297119 6.703997 -4.303421
v -3.297119 6.703997 -4.303421
v -3.297119 6.703997 -4.303421
v -3.297119 6.703997 -4.303421
v -3.297119 6.703997 -4.303421
v -3.297119 6.703997 -4.303421
v -3.297119 6.703997 -4.303421
v -3.297119 6.703997 -4.303421
v -3.297119 6.703997 -4.303421
v -3.297119 6.703997 -4.303421
v -3.276156 7.498835 -9.499283
v -3.276156 7.498835 -9.499283
v -3.276156 7.498835 -9.499283
v -3.276156 7.498835 -9.499283
v -3.276156 7.498835 -9.499283
v -3.276156 7.498835 -9.499283
v -3.276156 7.498835 -9.499283
v -3.276156 7.498835 -9.499283
v -3.276156 7.498835 -9.499283
v -3.276156 7.498835 -9.499283
v -3.276156 7.498835 -9.499283
v -3.276156 7.498835 -9.499283
v -3.361045 7.594240 -9.954538
v -3.149383 7.690751 -9.912396
v -2.985289 7.765677 -9.759586
v -2.912733 7.798939 -9.537054
v -2.951156 7.781627 -9.304427
v -3.090262 7.718378 -9.124037
v -3.292779 7.626141 -9.044220
v -3.504441 7.529629 -9.086362
v -3.668534 7.454704 -9.239172
v -3.741090 7.421441 -9.461705
v -3.702668 7.438753 -9.694332
v -3.563561 7.502002 -9.874721
v -3.524699 7.886790 -10.288001
v -3.158089 8.053954 -10.215008
v -2.873871 8.183728 -9.950333
v -2.748200 8.241341 -9.564896
v -2.814750 8.211355 -9.161974
v -3.055689 8.101805 -8.849530
v -3.406458 7.942045 -8.711282
v -3.773067 7.774882 -8.784275
v -4.057286 7.645107 -9.048950
v -4.182956 7.587494 -9.434387
v -4.116406 7.617480 -9.837309
v -3.875467 7.727030 -10.149753
v -3.723267 8.298099 -10.410319
v -3.299942 8.491122 -10.326034
v -2.971755 8.640973 -10.020414
v -2.826643 8.707499 -9.575349
v -2.903489 8.672874 -9.110095
v -3.181701 8.546376 -8.749315
v -3.586733 8.361901 -8.589681
v -4.010058 8.168878 -8.673966
v -4.338245 8.019027 -8.979586
v -4.483357 7.952501 -9.424651
v -4.406511 7.987126 -9.889905
v -4.128299 8.113624 -10.250685
v -3.903542 8.717955 -10.288718
v -3.536933 8.885118 -10.215725
v -3.252714 9.014893 -9.951050
v -3.127044 9.072506 -9.565613
v -3.193594 9.042520 -9.162691
v -3.434533 8.932970 -8.850247
v -3.785301 8.773210 -8.711999
v -4.151911 8.606046 -8.784992
v -4.436129 8.476272 -9.049667
v -4.561800 8.418659 -9.435104
v -4.495250 8.448645 -9.838026
v -4.254311 8.558195 -10.150470
v -4.017221 9.033859 -9.955780
v -3.805559 9.130371 -9.913638
v -3.641466 9.205296 -9.760828
v -3.568910 9.238559 -9.538295
v -3.607332 9.221247 -9.305668
v -3.746439 9.157998 -9.125279
v -3.948955 9.065760 -9.045462
v -4.160617 8.969249 -9.087604
v -4.324711 8.894323 -9.240414
v -4.397267 8.861061 -9.462946
v -4.358844 8.878373 -9.695573
v -4.219738 8.941622 -9.875963
v -4.033844 9.161165 -9.500717
v -4.033844 9.161165 -9.500717
v -4.033844 9.161165 -9.500717
v -4.033844 9.161165 -9.500717
v -4.033844 9.161165 -9.500717
v -4.033844 9.161165 -9.500717
v -4.033844 9.161165 -9.500717
v -4.033844 9.161165 -9.500717
v -4.033844 9.161165 -9.500717
v -4.033844 9.161165 -9.500717
v -4.033844 9.161165 -9.500717
v -4.033844 9.161165 -9.500717
v 8.643394 4.109280 -4.534271
v 8.643394 4.109280 -4.534271
v 8.643394 4.109280 -4.534271
v 8.643394 4.109280 -4.534271
v 8.643394 4.109280 -4.534271
v 8.643394 4.109280 -4.534271
v 8.643394 4.109280 -4.534271
v 8.643394 4.109280 -4.534271
v 8.643394 4.109280 -4.534271
v 8.643394 4.109280 -4.534271
v 8.643394 4.109280 -4.534271
v 8.643394 4.109280 -4.534271
v 8.557709 4.465319 -4.655031
v 8.712246 4.488603 -4.542124
v 8.832777 4.420505 -4.407934
v 8.887005 4.279272 -4.288416
v 8.860399 4.102746 -4.215595
v 8.760088 3.938228 -4.208984
v 8.612952 3.829800 -4.270354
v 8.458414 3.806516 -4.383261
v 8.337883 3.874614 -4.517451
v 8.283656 4.015847 -4.636969
v 8.310262 4.192373 -4.709790
v 8.410572 4.356891 -4.716401
v 8.378855 4.802515 -4.600276
v 8.646522 4.842845 -4.404716
v 8.855288 4.724896 -4.172291
v 8.949212 4.480273 -3.965280
v 8.903129 4.174522 -3.839151
v 8.729387 3.889568 -3.827700
v 8.474539 3.701765 -3.933995
v 8.206872 3.661435 -4.129556
v 7.998106 3.779384 -4.361980
v 7.904182 4.024007 -4.568992
v 7.950264 4.329759 -4.695121
v 8.124007 4.614712 -4.706572
v 8.154757 5.030518 -4.384677
v 8.463832 5.077087 -4.158864
v 8.704894 4.940892 -3.890483
v 8.813349 4.658425 -3.651447
v 8.760137 4.305374 -3.505805
v 8.559516 3.976338 -3.492583
v 8.265243 3.759482 -3.615323
v 7.956168 3.712913 -3.841136
v 7.715106 3.849108 -4.109517
v 7.606651 4.131575 -4.348553
v 7.659863 4.484626 -4.494195
v 7.860484 4.813662 -4.507417
v 7.945461 5.088235 -4.066005
v 8.213128 5.128565 -3.870444
v 8.421894 5.010616 -3.638020
v 8.515818 4.765993 -3.431008
v 8.469736 4.460241 -3.304879
v 8.295993 4.175288 -3.293428
v 8.041145 3.987485 -3.399724
v 7.773478 3.947155 -3.595284
v 7.564712 4.065104 -3.827709
v 7.470788 4.309727 -4.034720
v 7.516871 4.615478 -4.160849
v 7.690613 4.900432 -4.172300
v 7.807048 4.960200 -3.729646
v 7.961586 4.983484 -3.616739
v 8.082117 4.915386 -3.482549
v 8.136344 4.774153 -3.363031
v 8.109738 4.597627 -3.290210
v 8.009428 4.433109 -3.283599
v 7.862291 4.324681 -3.344969
v 7.707754 4.301397 -3.457876
v 7.587223 4.369495 -3.592066
v 7.532995 4.510728 -3.711584
v 7.559601 4.687254 -3.784405
v 7.659912 4.851772 -3.791016
v 7.776606 4.680720 -3.465729
v 7.776606 4.680720 -3.465729
v 7.776606 4.680720 -3.465729
v 7.776606 4.680720 -3.465729
v 7.776606 4.680720 -3.465729
v 7.776606 4.680720 -3.465729
v 7.776606 4.680720 -3.465729
v 7.776606 4.680720 -3.465729
v 7.776606 4.680720 -3.465729
v 7.776606 4.680720 -3.465729
v 7.776606 4.680720 -3.465729
v 7.776606 4.680720 -3.465729
v 9.289619 4.697429 -4.388731
v 9.289619 4.697429 -4.388731
v 9.289619 4.697429 -4.388731
v 9.289619 4.697429 -4.388731
v 9.289619 4.697429 -4.388731
v 9.289619 4.697429 -4.388731
v 9.289619 4.697429 -4.388731
v 9.289619 4.697429 -4.388731
v 9.289619 4.697429 -4.388731
v 9.289619 4.697429 -4.388731
v 9.289619 4.697429 -4.388731
v 9.289619 4.697429 -4.388731
v 9.466568 4.896635 -4.476595
v 9.544729 4.814048 -4.394445
v 9.554189 4.713768 -4.296809
v 9.492413 4.622663 -4.209849
v 9.375952 4.565147 -4.156865
v 9.236014 4.556629 -4.152055
v 9.110094 4.599393 -4.196707
v 9.031932 4.681980 -4.278857
v 9.022472 4.782260 -4.376493
v 9.084249 4.873365 -4.463453
v 9.200709 4.930882 -4.516437
v 9.340647 4.939399 -4.521247
v 9.593525 5.143634 -4.436755
v 9.728905 5.000590 -4.294467
v 9.745290 4.826898 -4.125357
v 9.638290 4.669101 -3.974738
v 9.436575 4.569479 -3.882967
v 9.194194 4.554726 -3.874636
v 8.976094 4.628795 -3.951976
v 8.840714 4.771840 -4.094263
v 8.824329 4.945531 -4.263374
v 8.931329 5.103328 -4.413993
v 9.133045 5.202950 -4.505764
v 9.375425 5.217703 -4.514095
v 9.636474 5.372242 -4.279888
v 9.792797 5.207069 -4.115588
v 9.811717 5.006507 -3.920316
v 9.688164 4.824299 -3.746396
v 9.455243 4.709265 -3.640428
v 9.175366 4.692230 -3.630808
v 8.923526 4.777758 -3.720112
v 8.767203 4.942931 -3.884412
v 8.748283 5.143493 -4.079684
v 8.871836 5.325701 -4.253604
v 9.104757 5.440735 -4.359572
v 9.384634 5.457770 -4.369192
v 9.583906 5.521205 -4.048024
v 9.719286 5.378160 -3.905737
v 9.735671 5.204469 -3.736626
v 9.628671 5.046672 -3.586007
v 9.426955 4.947050 -3.494236
v 9.184575 4.932297 -3.485905
v 8.966475 5.006366 -3.563245
v 8.831095 5.149410 -3.705533
v 8.814710 5.323102 -3.874643
v 8.921710 5.480899 -4.025262
v 9.123425 5.580521 -4.117033
v 9.365806 5.595274 -4.125364
v 9.449906 5.550607 -3.803293
v 9.528068 5.468020 -3.721143
v 9.537528 5.367740 -3.623507
v 9.475751 5.276635 -3.536547
v 9.359291 5.219118 -3.483563
v 9.219353 5.210601 -3.478753
v 9.093432 5.253365 -3.523405
v 9.015271 5.335952 -3.605555
v 9.005811 5.436232 -3.703191
v 9.067587 5.527337 -3.790151
v 9.184048 5.584853 -3.843135
v 9.323986 5.593371 -3.847945
v 9.270381 5.452571 -3.611269
v 9.270381 5.452571 -3.611269
v 9.270381 5.452571 -3.611269
v 9.270381 5.452571 -3.611269
v 9.270381 5.452571 -3.611269
v 9.270381 5.452571 -3.611269
v 9.270381 5.452571 -3.611269
v 9.270381 5.452571 -3.611269
v 9.270381 5.452571 -3.611269
v 9.270381 5.452571 -3.611269
v 9.270381 5.452571 -3.611269
v 9.270381 5.452571 -3.611269
v 0.111722 -3.317714 -1.973191
v -0.111722 3.317714 1.973191
v 0.281886 -11.924668 -2.223619
v -0.421886 -11.415332 -1.776381
v -2.662881 5.636003 -4.696579
v -3.297119 6.703997 -4.303421
v -3.276156 7.498835 -9.499283
v -4.033844 9.161165 -9.500717
v 8.643394 4.109280 -4.534271
v 7.776606 4.680720 -3.465729
v 9.289619 4.697429 -4.388731
v 9.270381 5.452571 -3.611269
f 5 6 10 9
f 6 7 11 10
f 7 8 12 11
f 8 5 9 12
f 9 10 14 13
f 10 11 15 14
f 11 12 16 15
f 12 9 13 16
f 13 14 18 17
f 14 15 19 18
f 15 16 20 19
f 16 13 17 20
f 21 22 26 25
f 22 23 27 26
f 23 24 28 27
f 24 21 25 28
f 25 26 30 29
f 26 27 31 30
f 27 28 32 31
f 28 25 29 32
f 33 34 38 37
f 34 35 39 38
f 35 36 40 39
f 36 33 37 40
f 37 38 42 41
f 38 39 43 42
f 39 40 44 43
f 40 37 41 44
f 45 46 50 49
f 46 47 51 50
f 47 48 52 51
f 48 45 49 52
f 49 50 54 53
f 50 51 55 54
f 51 52 56 55
f 52 49 53 56
f 53 54 58 57
f 54 55 59 58
f 55 56 60 59
f 56 53 57 60
f 57 58 62 61
f 58 59 63 62
f 59 60 64 63
f 60 57 61 64
f 61 62 66 65
f 62 63 67 66
f 63 64 68 67
f 64 61 65 68
f 65 66 70 69
f 66 67 71 70
f 67 68 72 71
f 68 65 69 72
f 69 70 74 73
f 70 71 75 74
f 71 72 76 75
f 72 69 73 76
f 73 74 78 77
f 74 75 79 78
f 75 76 80 79
f 76 73 77 80
f 77 78 82 81
f 78 79 83 82
f 79 80 84 83
f 80 77 81 84
f 81 82 86 85
f 82 83 87 86
f 83 84 88 87
f 84 81 85 88
f 85 86 90 89
f 86 87 91 90
f 87 88 92 91
f 88 85 89 92
f 93 94 98 97
f 94 95 99 98
f 95 96 100 99
f 96 93 97 100
f 97 98 102 101
f 98 99 103 102
f 99 100 104 103
f 100 97 101 104
f 101 102 106 105
f 102 103 107 106
f 103 104 108 107
f 104 101 105 108
f 105 106 110 109
f 106 107 111 110
f 107 108 112 111
f 108 105 109 112
f 113 114 118 117
f 114 115 119 118
f 115 116 120 119
f 116 113 117 120
f 117 118 122 121
f 118 119 123 122
f 119 120 124 123
f 120 117 121 124
f 121 122 126 125
f 122 123 127 126
f 123 124 128 127
f 124 121 125 128
f 129 130 134 133
f 130 131 135 134
f 131 132 136 135
f 132 129 133 136
f 133 134 138 137
f 134 135 139 138
f 135 136 140 139
f 136 133 137 140
f 137 138 142 141
f 138 139 143 142
f 139 140 144 143
f 140 137 141 144
f 149 150 154 153
f 150 151 155 154
f 151 152 156 155
f 152 149 153 156
f 153 154 158 157
f 154 155 159 158
f 155 156 160 159
f 156 153 157 160
f 157 158 162 161
f 158 159 163 162
f 159 160 164 163
f 160 157 161 164
f 161 162 166 165
f 162 163 167 166
f 163 164 168 167
f 164 161 165 168
f 165 166 170 169
f 166 167 171 170
f 167 168 172 171
f 168 165 169 172
f 169 170 174 173
f 170 171 175 174
f 171 172 176 175
f 172 169 173 176
f 173 174 178 177
f 174 175 179 178
f 175 176 180 179
f 176 173 177 180
f 177 178 182 181
f 178 179 183 182
f 179 180 184 183
f 180 177 181 184
f 181 182 186 185
f 182 183 187 186
f 183 184 188 187
f 184 181 185 188
f 185 186 190 189
f 186 187 191 190
f 187 188 192 191
f 188 185 189 192
f 189 190 194 193
f 190 191 195 194
f 191 192 196 195
f 192 189 193 196
f 193 194 198 197
f 194 195 199 198
f 195 196 200 199
f 196 193 197 200
f 201 202 206 205
f 202 203 207 206
f 203 204 208 207
f 204 201 205 208
f 205 206 210 209
f 206 207 211 210
f 207 208 212 211
f 208 205 209 212
f 209 210 214 213
f 210 211 215 214
f 211 212 216 215
f 212 209 213 216
f 213 214 218 217
f 214 215 219 218
f 215 216 220 219
f 216 213 217 220
f 217 218 222 221
f 218 219 223 222
f 219 220 224 223
f 220 217 221 224
f 221 222 226 225
f 222 223 227 226
f 223 224 228 227
f 224 221 225 228
f 225 226 230 229
f 226 227 231 230
f 227 228 232 231
f 228 225 229 232
f 229 230 234 233
f 230 231 235 234
f 231 232 236 235
f 232 229 233 236
f 233 234 238 237
f 234 235 239 238
f 235 236 240 239
f 236 233 237 240
f 237 238 242 241
f 238 239 243 242
f 239 240 244 243
f 240 237 241 244
f 241 242 246 245
f 242 243 247 246
f 243 244 248 247
f 244 241 245 248
f 245 246 250 249
f 246 247 251 250
f 247 248 252 251
f 248 245 249 252
f 249 250 254 253
f 250 251 255 254
f 251 252 256 255
f 252 249 253 256
f 257 258 262 261
f 258 259 263 262
f 259 260 264 263
f 260 257 261 264
f 261 262 266 265
f 262 263 267 266
f 263 264 268 267
f 264 261 265 268
f 265 266 270 269
f 266 267 271 270
f 267 268 272 271
f 268 265 269 272
f 281 282 286 285
f 282 283 287 286
f 283 284 288 287
f 284 281 285 288
f 285 286 290 289
f 286 287 291 290
f 287 288 292 291
f 288 285 289 292
f 289 290 294 293
f 290 291 295 294
f 291 292 296 295
f 292 289 293 296
f 297 298 302 301
f 298 299 303 302
f 299 300 304 303
f 300 297 301 304
f 305 306 310 309
f 306 307 311 310
f 307 308 312 311
f 308 305 309 312
f 309 310 314 313
f 310 311 315 314
f 311 312 316 315
f 312 309 313 316
f 313 314 318 317
f 314 315 319 318
f 315 316 320 319
f 316 313 317 320
f 317 318 322 321
f 318 319 323 322
f 319 320 324 323
f 320 317 321 324
f 321 322 326 325
f 322 323 327 326
f 323 324 328 327
f 324 321 325 328
f 325 326 330 329
f 326 327 331 330
f 327 328 332 331
f 328 325 329 332
f 329 330 334 333
f 330 331 335 334
f 331 332 336 335
f 332 329 333 336
f 333 334 338 337
f 334 335 339 338
f 335 336 340 339
f 336 333 337 340
f 337 338 342 341
f 338 339 343 342
f 339 340 344 343
f 340 337 341 344
f 341 342 346 345
f 342 343 347 346
f 343 344 348 347
f 344 341 345 348
f 345 346 350 349
f 346 347 351 350
f 347 348 352 351
f 348 345 349 352
f 349 350 354 353
f 350 351 355 354
f 351 352 356 355
f 352 349 353 356
f 5 6 375 376
f 6 7 387 375
f 7 8 388 387
f 8 5 376 388
f 45 46 428 416
f 46 47 427 428
f 47 48 415 427
f 48 45 416 415
f 93 94 394 393
f 94 95 406 394
f 95 96 405 406
f 96 93 393 405
f 113 114 406 405
f 114 115 418 406
f 115 116 417 418
f 116 113 405 417
f 257 258 395 394
f 258 259 407 395
f 259 260 406 407
f 260 257 394 406
f 305 306 376 377
f 306 307 388 376
f 307 308 389 388
f 308 305 377 389
f 357 358 370 369
f 358 359 371 370
f 359 360 372 371
f 360 361 373 372
f 361 362 374 373
f 362 363 375 374
f 363 364 376 375
f 364 365 377 376
f 365 366 378 377
f 366 367 379 378
f 367 368 380 379
f 368 357 369 380
f 369 370 382 381
f 370 371 383 382
f 371 372 384 383
f 372 373 385 384
f 373 374 386 385
f 374 375 387 386
f 377 378 390 389
f 378 379 391 390
f 379 380 392 391
f 380 369 381 392
f 381 382 394 393
f 382 383 395 394
f 383 384 396 395
f 384 385 397 396
f 385 386 398 397
f 386 387 399 398
f 387 388 400 399
f 388 389 401 400
f 389 390 402 401
f 390 391 403 402
f 391 392 404 403
f 392 381 393 404
f 395 396 408 407
f 396 397 409 408
f 397 398 410 409
f 398 399 411 410
f 399 400 412 411
f 400 401 413 412
f 401 402 414 413
f 402 403 415 414
f 403 404 416 415
f 404 393 405 416
f 406 407 419 418
f 407 408 420 419
f 408 409 421 420
f 409 410 422 421
f 410 411 423 422
f 411 412 424 423
f 412 413 425 424
f 413 414 426 425
f 414 415 427 426
f 416 405 417 428
f 417 418 430 429
f 418 419 431 430
f 419 420 432 431
f 420 421 433 432
f 421 422 434 433
f 422 423 435 434
f 423 424 436 435
f 424 425 437 436
f 425 426 438 437
f 426 427 439 438
f 427 428 440 439
f 428 417 429 440
f 17 18 490 489
f 18 19 502 490
f 19 20 501 502
f 20 17 489 501
f 21 22 474 475
f 22 23 486 474
f 23 24 487 486
f 24 21 475 487
f 33 34 461 462
f 34 35 473 461
f 35 36 474 473
f 36 33 462 474
f 441 442 454 453
f 442 443 455 454
f 443 444 456 455
f 444 445 457 456
f 445 446 458 457
f 446 447 459 458
f 447 448 460 459
f 448 449 461 460
f 449 450 462 461
f 450 451 463 462
f 451 452 464 463
f 452 441 453 464
f 453 454 466 465
f 454 455 467 466
f 455 456 468 467
f 456 457 469 468
f 457 458 470 469
f 458 459 471 470
f 459 460 472 471
f 460 461 473 472
f 462 463 475 474
f 463 464 476 475
f 464 453 465 476
f 465 466 478 477
f 466 467 479 478
f 467 468 480 479
f 468 469 481 480
f 469 470 482 481
f 470 471 483 482
f 471 472 484 483
f 472 473 485 484
f 473 474 486 485
f 475 476 488 487
f 476 465 477 488
f 477 478 490 489
f 478 479 491 490
f 479 480 492 491
f 480 481 493 492
f 481 482 494 493
f 482 483 495 494
f 483 484 496 495
f 484 485 497 496
f 485 486 498 497
f 486 487 499 498
f 487 488 500 499
f 488 477 489 500
f 490 491 503 502
f 491 492 504 503
f 492 493 505 504
f 493 494 506 505
f 494 495 507 506
f 495 496 508 507
f 496 497 509 508
f 497 498 510 509
f 498 499 511 510
f 499 500 512 511
f 500 489 501 512
f 501 502 514 513
f 502 503 515 514
f 503 504 516 515
f 504 505 517 516
f 505 506 518 517
f 506 507 519 518
f 507 508 520 519
f 508 509 521 520
f 509 510 522 521
f 510 511 523 522
f 511 512 524 523
f 512 501 513 524
f 125 126 567 555
f 126 127 568 567
f 127 128 556 568
f 128 125 555 556
f 129 130 573 561
f 130 131 584 573
f 131 132 572 584
f 132 129 561 572
f 145 146 563 562
f 146 147 575 563
f 147 148 574 575
f 148 145 562 574
f 525 526 538 537
f 526 527 539 538
f 527 528 540 539
f 528 529 541 540
f 529 530 542 541
f 530 531 543 542
f 531 532 544 543
f 532 533 545 544
f 533 534 546 545
f 534 535 547 546
f 535 536 548 547
f 536 525 537 548
f 537 538 550 549
f 538 539 551 550
f 539 540 552 551
f 540 541 553 552
f 541 542 554 553
f 542 543 555 554
f 543 544 556 555
f 544 545 557 556
f 545 546 558 557
f 546 547 559 558
f 547 548 560 559
f 548 537 549 560
f 549 550 562 561
f 550 551 563 562
f 551 552 564 563
f 552 553 565 564
f 553 554 566 565
f 554 555 567 566
f 556 557 569 568
f 557 558 570 569
f 558 559 571 570
f 559 560 572 571
f 560 549 561 572
f 561 562 574 573
f 563 564 576 575
f 564 565 577 576
f 565 566 578 577
f 566 567 579 578
f 567 568 580 579
f 568 569 581 580
f 569 570 582 581
f 570 571 583 582
f 571 572 584 583
f 573 574 586 585
f 574 575 587 586
f 575 576 588 587
f 576 577 589 588
f 577 578 590 589
f 578 579 591 590
f 579 580 592 591
f 580 581 593 592
f 581 582 594 593
f 582 583 595 594
f 583 584 596 595
f 584 573 585 596
f 585 586 598 597
f 586 587 599 598
f 587 588 600 599
f 588 589 601 600
f 589 590 602 601
f 590 591 603 602
f 591 592 604 603
f 592 593 605 604
f 593 594 606 605
f 594 595 607 606
f 595 596 608 607
f 596 585 597 608
f 145 146 639 640
f 146 147 651 639
f 147 148 652 651
f 148 145 640 652
f 149 150 675 676
f 150 151 663 675
f 151 152 664 663
f 152 149 676 664
f 201 202 647 646
f 202 203 659 647
f 203 204 658 659
f 204 201 646 658
f 609 610 622 621
f 610 611 623 622
f 611 612 624 623
f 612 613 625 624
f 613 614 626 625
f 614 615 627 626
f 615 616 628 627
f 616 617 629 628
f 617 618 630 629
f 618 619 631 630
f 619 620 632 631
f 620 609 621 632
f 621 622 634 633
f 622 623 635 634
f 623 624 636 635
f 624 625 637 636
f 625 626 638 637
f 626 627 639 638
f 627 628 640 639
f 628 629 641 640
f 629 630 642 641
f 630 631 643 642
f 631 632 644 643
f 632 621 633 644
f 633 634 646 645
f 634 635 647 646
f 635 636 648 647
f 636 637 649 648
f 637 638 650 649
f 638 639 651 650
f 640 641 653 652
f 641 642 654 653
f 642 643 655 654
f 643 644 656 655
f 644 633 645 656
f 645 646 658 657
f 647 648 660 659
f 648 649 661 660
f 649 650 662 661
f 650 651 663 662
f 651 652 664 663
f 652 653 665 664
f 653 654 666 665
f 654 655 667 666
f 655 656 668 667
f 656 645 657 668
f 657 658 670 669
f 658 659 671 670
f 659 660 672 671
f 660 661 673 672
f 661 662 674 673
f 662 663 675 674
f 664 665 677 676
f 665 666 678 677
f 666 667 679 678
f 667 668 680 679
f 668 657 669 680
f 669 670 682 681
f 670 671 683 682
f 671 672 684 683
f 672 673 685 684
f 673 674 686 685
f 674 675 687 686
f 675 676 688 687
f 676 677 689 688
f 677 678 690 689
f 678 679 691 690
f 679 680 692 691
f 680 669 681 692
f 269 270 736 737
f 270 271 748 736
f 271 272 749 748
f 272 269 737 749
f 273 274 721 709
f 274 275 720 721
f 275 276 708 720
f 276 273 709 708
f 297 298 744 743
f 298 299 756 744
f 299 300 755 756
f 300 297 743 755
f 693 694 706 705
f 694 695 707 706
f 695 696 708 707
f 696 697 709 708
f 697 698 710 709
f 698 699 711 710
f 699 700 712 711
f 700 701 713 712
f 701 702 714 713
f 702 703 715 714
f 703 704 716 715
f 704 693 705 716
f 705 706 718 717
f 706 707 719 718
f 707 708 720 719
f 709 710 722 721
f 710 711 723 722
f 711 712 724 723
f 712 713 725 724
f 713 714 726 725
f 714 715 727 726
f 715 716 728 727
f 716 705 717 728
f 717 718 730 729
f 718 719 731 730
f 719 720 732 731
f 720 721 733 732
f 721 722 734 733
f 722 723 735 734
f 723 724 736 735
f 724 725 737 736
f 725 726 738 737
f 726 727 739 738
f 727 728 740 739
f 728 717 729 740
f 729 730 742 741
f 730 731 743 742
f 731 732 744 743
f 732 733 745 744
f 733 734 746 745
f 734 735 747 746
f 735 736 748 747
f 737 738 750 749
f 738 739 751 750
f 739 740 752 751
f 740 729 741 752
f 741 742 754 753
f 742 743 755 754
f 744 745 757 756
f 745 746 758 757
f 746 747 759 758
f 747 748 760 759
f 748 749 761 760
f 749 750 762 761
f 750 751 763 762
f 751 752 764 763
f 752 741 753 764
f 753 754 766 765
f 754 755 767 766
f 755 756 768 767
f 756 757 769 768
f 757 758 770 769
f 758 759 771 770
f 759 760 772 771
f 760 761 773 772
f 761 762 774 773
f 762 763 775 774
f 763 764 776 775
f 764 753 765 776
f 273 274 832 820
f 274 275 833 832
f 275 276 821 833
f 276 273 820 821
f 277 278 816 804
f 278 279 815 816
f 279 280 803 815
f 280 277 804 803
f 281 282 805 793
f 282 283 804 805
f 283 284 792 804
f 284 281 793 792
f 777 778 790 789
f 778 779 791 790
f 779 780 792 791
f 780 781 793 792
f 781 782 794 793
f 782 783 795 794
f 783 784 796 795
f 784 785 797 796
f 785 786 798 797
f 786 787 799 798
f 787 788 800 799
f 788 777 789 800
f 789 790 802 801
f 790 791 803 802
f 791 792 804 803
f 793 794 806 805
f 794 795 807 806
f 795 796 808 807
f 796 797 809 808
f 797 798 810 809
f 798 799 811 810
f 799 800 812 811
f 800 789 801 812
f 801 802 814 813
f 802 803 815 814
f 804 805 817 816
f 805 806 818 817
f 806 807 819 818
f 807 808 820 819
f 808 809 821 820
f 809 810 822 821
f 810 811 823 822
f 811 812 824 823
f 812 801 813 824
f 813 814 826 825
f 814 815 827 826
f 815 816 828 827
f 816 817 829 828
f 817 818 830 829
f 818 819 831 830
f 819 820 832 831
f 821 822 834 833
f 822 823 835 834
f 823 824 836 835
f 824 813 825 836
f 825 826 838 837
f 826 827 839 838
f 827 828 840 839
f 828 829 841 840
f 829 830 842 841
f 830 831 843 842
f 831 832 844 843
f 832 833 845 844
f 833 834 846 845
f 834 835 847 846
f 835 836 848 847
f 836 825 837 848
f 837 838 850 849
f 838 839 851 850
f 839 840 852 851
f 840 841 853 852
f 841 842 854 853
f 842 843 855 854
f 843 844 856 855
f 844 845 857 856
f 845 846 858 857
f 846 847 859 858
f 847 848 860 859
f 848 837 849 860
f 32 31 30 29
f 44 43 42 41
f 92 91 90 89
f 112 111 110 109
f 144 143 142 141
f 200 199 198 197
f 256 255 254 253
f 280 279 278 277
f 296 295 294 293
f 304 303 302 301
f 356 355 354 353
f 861 357 358
f 861 358 359
f 861 359 360
f 861 360 361
f 861 361 362
f 861 362 363
f 861 363 364
f 861 364 365
f 861 365 366
f 861 366 367
f 861 367 368
f 861 368 357
f 862 429 430
f 862 430 431
f 862 431 432
f 862 432 433
f 862 433 434
f 862 434 435
f 862 435 436
f 862 436 437
f 862 437 438
f 862 438 439
f 862 439 440
f 862 440 429
f 863 441 442
f 863 442 443
f 863 443 444
f 863 444 445
f 863 445 446
f 863 446 447
f 863 447 448
f 863 448 449
f 863 449 450
f 863 450 451
f 863 451 452
f 863 452 441
f 864 513 514
f 864 514 515
f 864 515 516
f 864 516 517
f 864 517 518
f 864 518 519
f 864 519 520
f 864 520 521
f 864 521 522
f 864 522 523
f 864 523 524
f 864 524 513
f 865 525 526
f 865 526 527
f 865 527 528
f 865 528 529
f 865 529 530
f 865 530 531
f 865 531 532
f 865 532 533
f 865 533 534
f 865 534 535
f 865 535 536
f 865 536 525
f 866 597 598
f 866 598 599
f 866 599 600
f 866 600 601
f 866 601 602
f 866 602 603
f 866 603 604
f 866 604 605
f 866 605 606
f 866 606 607
f 866 607 608
f 866 608 597
f 867 609 610
f 867 610 611
f 867 611 612
f 867 612 613
f 867 613 614
f 867 614 615
f 867 615 616
f 867 616 617
f 867 617 618
f 867 618 619
f 867 619 620
f 867 620 609
f 868 681 682
f 868 682 683
f 868 683 684
f 868 684 685
f 868 685 686
f 868 686 687
f 868 687 688
f 868 688 689
f 868 689 690
f 868 690 691
f 868 691 692
f 868 692 681
f 869 693 694
f 869 694 695
f 869 695 696
f 869 696 697
f 869 697 698
f 869 698 699
f 869 699 700
f 869 700 701
f 869 701 702
f 869 702 703
f 869 703 704
f 869 704 693
f 870 765 766
f 870 766 767
f 870 767 768
f 870 768 769
f 870 769 770
f 870 770 771
f 870 771 772
f 870 772 773
f 870 773 774
f 870 774 775
f 870 775 776
f 870 776 765
f 871 777 778
f 871 778 779
f 871 779 780
f 871 780 781
f 871 781 782
f 871 782 783
f 871 783 784
f 871 784 785
f 871 785 786
f 871 786 787
f 871 787 788
f 871 788 777
f 872 849 850
f 872 850 851
f 872 851 852
f 872 852 853
f 872 853 854
f 872 854 855
f 872 855 856
f 872 856 857
f 872 857 858
f 872 858 859
f 872 859 860
f 872 860 849
